<svg width="17" height="17" viewBox="0 0 17 17" fill="none" xmlns="http://www.w3.org/2000/svg"><mask id="mask0_0_2681" style="mask-type:alpha" maskUnits="userSpaceOnUse" x="-4" y="-4" width="25" height="25"><rect x="-3.5" y="-3.5" width="24" height="24" fill="#D9D9D9"/></mask><g mask="url(#mask0_0_2681)"><path d="M1.80775 17C1.30258 17 0.875 16.825 0.525 16.475C0.175 16.125 0 15.6974 0 15.1923V1.80775C0 1.30258 0.175 0.875 0.525 0.525C0.875 0.175 1.30258 0 1.80775 0H15.1923C15.6974 0 16.125 0.175 16.475 0.525C16.825 0.875 17 1.30258 17 1.80775V15.1923C17 15.6974 16.825 16.125 16.475 16.475C16.125 16.825 15.6974 17 15.1923 17H1.80775ZM6.10375 8.42875L8.5 7.23075L10.8962 8.42875C11.1526 8.55692 11.4006 8.54767 11.6403 8.401C11.8801 8.25417 12 8.03717 12 7.75V1.5H5V7.75C5 8.03717 5.11992 8.25417 5.35975 8.401C5.59942 8.54767 5.84742 8.55692 6.10375 8.42875ZM4.25 13.25H7.75C7.96283 13.25 8.141 13.1782 8.2845 13.0345C8.42817 12.891 8.5 12.7128 8.5 12.5C8.5 12.2872 8.42817 12.109 8.2845 11.9655C8.141 11.8218 7.96283 11.75 7.75 11.75H4.25C4.03717 11.75 3.859 11.8218 3.7155 11.9655C3.57183 12.109 3.5 12.2872 3.5 12.5C3.5 12.7128 3.57183 12.891 3.7155 13.0345C3.859 13.1782 4.03717 13.25 4.25 13.25Z" fill="#A1A5B7"/></g></svg>