<svg width="19" height="19" viewBox="0 0 19 19" fill="none" xmlns="http://www.w3.org/2000/svg"><mask id="mask0_0_2694" style="mask-type:alpha" maskUnits="userSpaceOnUse" x="-3" y="-3" width="25" height="25"><rect x="-2.5" y="-2.5" width="24" height="24" fill="#D9D9D9"/></mask><g mask="url(#mask0_0_2694)"><path d="M6.5 11.75C6.15 11.75 5.85417 11.6292 5.6125 11.3875C5.37083 11.1458 5.25 10.85 5.25 10.5C5.25 10.15 5.37083 9.85417 5.6125 9.6125C5.85417 9.37083 6.15 9.25 6.5 9.25C6.85 9.25 7.14583 9.37083 7.3875 9.6125C7.62917 9.85417 7.75 10.15 7.75 10.5C7.75 10.85 7.62917 11.1458 7.3875 11.3875C7.14583 11.6292 6.85 11.75 6.5 11.75ZM12.5 11.75C12.15 11.75 11.8542 11.6292 11.6125 11.3875C11.3708 11.1458 11.25 10.85 11.25 10.5C11.25 10.15 11.3708 9.85417 11.6125 9.6125C11.8542 9.37083 12.15 9.25 12.5 9.25C12.85 9.25 13.1458 9.37083 13.3875 9.6125C13.6292 9.85417 13.75 10.15 13.75 10.5C13.75 10.85 13.6292 11.1458 13.3875 11.3875C13.1458 11.6292 12.85 11.75 12.5 11.75ZM9.5 17.5C11.7333 17.5 13.625 16.725 15.175 15.175C16.725 13.625 17.5 11.7333 17.5 9.5C17.5 9.1 17.475 8.7125 17.425 8.3375C17.375 7.9625 17.2833 7.6 17.15 7.25C16.8 7.33333 16.45 7.39583 16.1 7.4375C15.75 7.47917 15.3833 7.5 15 7.5C13.4833 7.5 12.05 7.175 10.7 6.525C9.35 5.875 8.2 4.96667 7.25 3.8C6.71667 5.1 5.95417 6.22917 4.9625 7.1875C3.97083 8.14583 2.81667 8.86667 1.5 9.35V9.5C1.5 11.7333 2.275 13.625 3.825 15.175C5.375 16.725 7.26667 17.5 9.5 17.5ZM9.50175 19C8.18775 19 6.95267 18.7507 5.7965 18.252C4.64033 17.7533 3.63467 17.0766 2.7795 16.2218C1.92433 15.3669 1.24725 14.3617 0.74825 13.206C0.249417 12.0503 0 10.8156 0 9.50175C0 8.18775 0.249333 6.95267 0.748 5.7965C1.24667 4.64033 1.92342 3.63467 2.77825 2.7795C3.63308 1.92433 4.63833 1.24725 5.794 0.74825C6.94967 0.249417 8.18442 0 9.49825 0C10.8123 0 12.0473 0.249333 13.2035 0.748C14.3597 1.24667 15.3653 1.92342 16.2205 2.77825C17.0757 3.63308 17.7528 4.63833 18.2518 5.794C18.7506 6.94967 19 8.18442 19 9.49825C19 10.8123 18.7507 12.0473 18.252 13.2035C17.7533 14.3597 17.0766 15.3653 16.2218 16.2205C15.3669 17.0757 14.3617 17.7528 13.206 18.2518C12.0503 18.7506 10.8156 19 9.50175 19Z" fill="#A1A5B7"/></g></svg>