<svg width="35" height="37" viewBox="0 0 35 37" fill="none" xmlns="http://www.w3.org/2000/svg"><path d="M26.234 22.4782C26.1537 22.3849 26.075 22.2917 25.9977 22.2017C24.9347 20.9608 24.2916 20.2119 24.2916 16.6991C24.2916 14.8804 23.8407 13.3882 22.9522 12.269C22.297 11.4422 21.4113 10.815 20.2439 10.3515C20.2289 10.3435 20.2155 10.3329 20.2043 10.3203C19.7844 8.96328 18.6354 8.05442 17.3395 8.05442C16.0436 8.05442 14.8951 8.96328 14.4752 10.3189C14.464 10.331 14.4508 10.3413 14.436 10.3492C11.7119 11.4315 10.3879 13.508 10.3879 16.6977C10.3879 20.2119 9.74578 20.9608 8.68181 22.2003C8.6045 22.2903 8.52574 22.3817 8.44553 22.4768C8.23834 22.7179 8.10707 23.0113 8.06725 23.3222C8.02744 23.6331 8.08074 23.9485 8.22085 24.2311C8.51898 24.8373 9.15436 25.2136 9.87962 25.2136H24.8047C25.5266 25.2136 26.1576 24.8378 26.4567 24.2343C26.5974 23.9517 26.6512 23.636 26.6117 23.3248C26.5723 23.0135 26.4412 22.7197 26.234 22.4782ZM17.3395 28.9456C18.0377 28.945 18.7228 28.7621 19.322 28.4162C19.9212 28.0704 20.4123 27.5744 20.743 26.981C20.7586 26.9525 20.7663 26.9207 20.7654 26.8885C20.7645 26.8564 20.7549 26.825 20.7377 26.7974C20.7205 26.7699 20.6962 26.7471 20.6671 26.7313C20.6381 26.7155 20.6053 26.7072 20.572 26.7072H14.108C14.0746 26.7071 14.0418 26.7154 14.0127 26.7311C13.9836 26.7469 13.9592 26.7697 13.9419 26.7972C13.9246 26.8248 13.9151 26.8562 13.9141 26.8884C13.9131 26.9206 13.9208 26.9525 13.9364 26.981C14.2672 27.5743 14.7582 28.0702 15.3573 28.4161C15.9564 28.762 16.6414 28.9449 17.3395 28.9456Z" fill="white"/><path d="M26.1209 12.6968C26.1209 14.3418 24.7874 15.6753 23.1424 15.6753C21.4975 15.6753 20.164 14.3418 20.164 12.6968C20.164 11.0519 21.4975 9.71837 23.1424 9.71837C24.7874 9.71837 26.1209 11.0519 26.1209 12.6968Z" fill="#E73152" stroke="#62B4FF"/></svg>