<svg width="5" height="8" viewBox="0 0 5 8" fill="none" xmlns="http://www.w3.org/2000/svg"><mask id="mask0_0_2631" style="mask-type:alpha" maskUnits="userSpaceOnUse" x="-7" y="-5" width="19" height="18"><rect x="-6.04492" y="-4.61" width="17.2198" height="17.2198" fill="#D9D9D9"/></mask><g mask="url(#mask0_0_2631)"><path d="M2.99552 4.00001L0.19731 1.2018C0.0657699 1.07026 0 0.902842 0 0.699553C0 0.496264 0.0657699 0.32885 0.19731 0.19731C0.32885 0.0657699 0.496264 0 0.699553 0C0.902842 0 1.07026 0.0657699 1.2018 0.19731L4.50225 3.49776C4.574 3.56951 4.62482 3.64724 4.65472 3.73095C4.68461 3.81466 4.69956 3.90434 4.69956 4.00001C4.69956 4.09567 4.68461 4.18536 4.65472 4.26907C4.62482 4.35277 4.574 4.4305 4.50225 4.50225L1.2018 7.80271C1.07026 7.93425 0.902842 8.00002 0.699553 8.00002C0.496264 8.00002 0.32885 7.93425 0.19731 7.80271C0.0657699 7.67117 0 7.50375 0 7.30046C0 7.09717 0.0657699 6.92976 0.19731 6.79822L2.99552 4.00001Z" fill="white"/></g></svg>