<svg width="15" height="17" viewBox="0 0 15 17" fill="none" xmlns="http://www.w3.org/2000/svg"><mask id="mask0_0_2676" style="mask-type:alpha" maskUnits="userSpaceOnUse" x="-5" y="-5" width="25" height="25"><rect x="-4.5" y="-4.05775" width="24" height="24" fill="#D9D9D9"/></mask><g mask="url(#mask0_0_2676)"><path d="M0 14.9423V6.096C0 5.80983 0.0639998 5.53875 0.192 5.28275C0.320166 5.02658 0.497167 4.81567 0.723 4.65L6.4155 0.361501C6.73133 0.120501 7.09233 0 7.4985 0C7.90467 0 8.26667 0.120501 8.5845 0.361501L14.277 4.65C14.5028 4.81567 14.6798 5.02658 14.808 5.28275C14.936 5.53875 15 5.80983 15 6.096V14.9423C15 15.3513 14.8523 15.7035 14.5568 15.999C14.2613 16.2945 13.909 16.4423 13.5 16.4423H10.3077C10.0516 16.4423 9.83692 16.3556 9.66375 16.1823C9.49042 16.0091 9.40375 15.7944 9.40375 15.5383V10.6538C9.40375 10.3978 9.31717 10.1831 9.144 10.0098C8.97083 9.83659 8.75617 9.75 8.5 9.75H6.5C6.24383 9.75 6.02917 9.83659 5.856 10.0098C5.68283 10.1831 5.59625 10.3978 5.59625 10.6538V15.5383C5.59625 15.7944 5.50958 16.0091 5.33625 16.1823C5.16308 16.3556 4.94842 16.4423 4.69225 16.4423H1.5C1.091 16.4423 0.73875 16.2945 0.44325 15.999C0.14775 15.7035 0 15.3513 0 14.9423Z" fill="#2B9794"/></g></svg>