<svg width="19" height="20" viewBox="0 0 19 20" fill="none" xmlns="http://www.w3.org/2000/svg"><mask id="mask0_0_2689" style="mask-type:alpha" maskUnits="userSpaceOnUse" x="-2" y="-3" width="25" height="26"><rect x="-1.51809" y="-2.27713" width="24.2894" height="24.2894" fill="#D9D9D9"/></mask><g mask="url(#mask0_0_2689)"><path d="M5.72193 19.5406C5.23023 19.5406 4.81217 19.3683 4.46773 19.0237C4.12329 18.6792 3.95108 18.2612 3.95108 17.7695C3.95108 17.2776 4.12329 16.8595 4.46773 16.515C4.81217 16.1706 5.23023 15.9984 5.72193 15.9984C6.21379 15.9984 6.63194 16.1706 6.97637 16.515C7.32081 16.8595 7.49303 17.2776 7.49303 17.7695C7.49303 18.2612 7.32081 18.6792 6.97637 19.0237C6.63194 19.3683 6.21379 19.5406 5.72193 19.5406ZM15.5313 19.5406C15.0394 19.5406 14.6213 19.3683 14.2769 19.0237C13.9324 18.6792 13.7602 18.2612 13.7602 17.7695C13.7602 17.2776 13.9324 16.8595 14.2769 16.515C14.6213 16.1706 15.0394 15.9984 15.5313 15.9984C16.023 15.9984 16.4411 16.1706 16.7855 16.515C17.1299 16.8595 17.3022 17.2776 17.3022 17.7695C17.3022 18.2612 17.1299 18.6792 16.7855 19.0237C16.4411 19.3683 16.023 19.5406 15.5313 19.5406ZM3.84203 2.02412H17.894C18.3079 2.02412 18.6209 2.2003 18.8329 2.55266C19.0451 2.90486 19.0552 3.26456 18.8633 3.63177L15.6206 9.50551C15.4546 9.79748 15.2351 10.0249 14.962 10.1876C14.6888 10.3506 14.3894 10.432 14.0638 10.432H6.67959L5.50788 12.5728C5.45592 12.6507 5.45432 12.7351 5.50307 12.8258C5.55165 12.9167 5.6246 12.9622 5.72193 12.9622H16.5434C16.7586 12.9622 16.9389 13.0348 17.0843 13.18C17.2295 13.3254 17.3022 13.5058 17.3022 13.7212C17.3022 13.9366 17.2295 14.1169 17.0843 14.2622C16.9389 14.4076 16.7586 14.4803 16.5434 14.4803H5.72193C5.04722 14.4803 4.54026 14.1893 4.20105 13.6074C3.86168 13.0254 3.8497 12.4444 4.16513 11.8644L5.60908 9.26818L1.92696 1.51809H0.759044C0.543644 1.51809 0.363329 1.44539 0.218099 1.29999C0.0726996 1.15476 0 0.974444 0 0.759044C0 0.543644 0.0726996 0.363329 0.218099 0.218098C0.363329 0.0726994 0.543644 0 0.759044 0H2.30623C2.47895 0 2.63987 0.0457109 2.78898 0.137133C2.93826 0.228725 3.05178 0.35751 3.12954 0.523487L3.84203 2.02412Z" fill="#A1A5B7"/></g></svg>