<svg width="19" height="21" viewBox="0 0 19 21" fill="none" xmlns="http://www.w3.org/2000/svg"><path d="M18.2742 14.4989C18.1936 14.4052 18.1145 14.3114 18.0367 14.2209C16.9682 12.9736 16.3217 12.2208 16.3217 8.68969C16.3217 6.86156 15.8686 5.36156 14.9754 4.23656C14.3168 3.40547 13.4265 2.775 12.253 2.30906C12.2379 2.30096 12.2244 2.29032 12.2132 2.27766C11.7911 0.913594 10.6361 0 9.33346 0C8.0308 0 6.87629 0.913594 6.45422 2.27625C6.44295 2.28845 6.42966 2.29875 6.41487 2.30672C3.67649 3.39469 2.34567 5.48203 2.34567 8.68828C2.34567 12.2208 1.70017 12.9736 0.630656 14.2195C0.552944 14.31 0.473774 14.4019 0.393148 14.4975C0.184879 14.7399 0.0529243 15.0348 0.0128988 15.3473C-0.0271267 15.6598 0.0264529 15.9769 0.167297 16.2609C0.466975 16.8703 1.10567 17.2486 1.83471 17.2486H16.8375C17.5632 17.2486 18.1975 16.8708 18.4982 16.2642C18.6396 15.9801 18.6937 15.6628 18.654 15.3499C18.6143 15.037 18.4825 14.7417 18.2742 14.4989ZM9.33346 21C10.0353 20.9995 10.7239 20.8156 11.3263 20.4679C11.9286 20.1202 12.4222 19.6217 12.7547 19.0252C12.7704 18.9966 12.7781 18.9646 12.7772 18.9322C12.7763 18.8999 12.7667 18.8684 12.7494 18.8407C12.7321 18.813 12.7076 18.7901 12.6784 18.7742C12.6493 18.7583 12.6163 18.75 12.5828 18.75H6.08508C6.05153 18.7499 6.01853 18.7582 5.98927 18.774C5.96002 18.7899 5.93552 18.8128 5.91816 18.8405C5.9008 18.8682 5.89116 18.8997 5.8902 18.9321C5.88924 18.9645 5.89698 18.9965 5.91266 19.0252C6.24514 19.6216 6.73867 20.1201 7.34092 20.4678C7.94316 20.8155 8.63168 20.9994 9.33346 21Z" fill="white"/><ellipse cx="15.1666" cy="4.6666" rx="3.5" ry="3.5" fill="#E73152"/></svg>